HIERARCHY
ROOT Hips
{
	OFFSET 0.000000 8.830580 0.000000
	CHANNELS 6 Xposition Yposition Zposition Zrotation Yrotation Xrotation 
	JOINT Spine
	{
		OFFSET 0.000000 0.010000 0.000000
		CHANNELS 3 Zrotation Yrotation Xrotation
		JOINT Spine1
		{
			OFFSET 0.000000 2.459130 0.000000
			CHANNELS 3 Zrotation Yrotation Xrotation
			JOINT Neck
			{
				OFFSET 0.000000 2.484630 0.000000
				CHANNELS 3 Zrotation Yrotation Xrotation
				JOINT Head_virtual
				{
					OFFSET 0.000000 0.000000 0.000000
					CHANNELS 3 Zrotation Yrotation Xrotation
					JOINT Head
					{
						OFFSET 0.000000 0.927525 0.000000
						CHANNELS 3 Zrotation Yrotation Xrotation
						End Site
						{
							OFFSET 0.000000 0.000000 0.000000
						}
					}
				}
				JOINT LeftUpArm_virtual
				{
					OFFSET 0.000000 0.000000 0.000000
					CHANNELS 3 Zrotation Yrotation Xrotation
					JOINT LeftUpArm
					{
						OFFSET 1.248820 0.000000 0.000000
						CHANNELS 3 Zrotation Yrotation Xrotation
						JOINT LeftForeArm
						{
							OFFSET 2.597580 0.000000 0.000000
							CHANNELS 3 Zrotation Yrotation Xrotation
							JOINT LeftHand
							{
								OFFSET 2.455420 0.000000 0.000000
								CHANNELS 3 Zrotation Yrotation Xrotation
								End Site
								{
									OFFSET 0.000000 0.000000 0.000000
								}
							}
						}
					}
				}
				JOINT RightUpArm_virtual
				{
					OFFSET -0.000000 -0.000000 -0.000000
					CHANNELS 3 Zrotation Yrotation Xrotation
					JOINT RightUpArm
					{
						OFFSET -1.248820 -0.000000 -0.000000
						CHANNELS 3 Zrotation Yrotation Xrotation
						JOINT RightForeArm
						{
							OFFSET -2.597580 -0.000000 -0.000000
							CHANNELS 3 Zrotation Yrotation Xrotation
							JOINT RightHand
							{
								OFFSET -2.455420 -0.000000 -0.000000
								CHANNELS 3 Zrotation Yrotation Xrotation
								End Site
								{
									OFFSET 0.000000 0.000000 0.000000
								}
							}
						}
					}
				}
			}
		}
	}
	JOINT LeftUpLeg
	{
		OFFSET 1.271939 0.000000 0.000000
		CHANNELS 3 Zrotation Yrotation Xrotation
		JOINT LeftLowLeg
		{
			OFFSET 0.000000 -4.342910 0.000000
			CHANNELS 3 Zrotation Yrotation Xrotation
			JOINT LeftFoot
			{
				OFFSET 0.000000 -4.487670 0.000000
				CHANNELS 3 Zrotation Yrotation Xrotation
				JOINT LeftToeBase
				{
					OFFSET 0.000000 0.000000 1.515070
					CHANNELS 3 Zrotation Yrotation Xrotation
					End Site
					{
						OFFSET 0.000000 0.000000 0.000000
					}
				}
			}
		}
	}
	JOINT RightUpLeg
	{
		OFFSET -1.271939 0.000000 0.000000
		CHANNELS 3 Zrotation Yrotation Xrotation
		JOINT RightLowLeg
		{
			OFFSET 0.000000 -4.342910 0.000000
			CHANNELS 3 Zrotation Yrotation Xrotation
			JOINT RightFoot
			{
				OFFSET 0.000000 -4.487670 0.000000
				CHANNELS 3 Zrotation Yrotation Xrotation
				JOINT RightToeBase
				{
					OFFSET 0.000000 0.000000 1.515070
					CHANNELS 3 Zrotation Yrotation Xrotation
					End Site
					{
						OFFSET 0.000000 0.000000 0.000000
					}
				}
			}
		}
	}
}
MOTION
Frames: 15
Frame Time: 0.041667
-14.777321 8.615014 47.779006 -172.342974 -1.382368 -175.378762 -2.515177 0.705327 -7.341990 13.340719 1.759671 2.243228 0.000000 0.000000 0.000000 151.223815 31.976390 -154.479674 -151.581897 -62.897335 66.013084 0.152205 -9.896580 3.191986 -56.970699 2.145170 82.084999 0.000000 -61.835499 0.000000 81.727501 -24.817499 -8.038860 27.053699 -4.248560 -0.644989 67.081703 47.456799 -21.264008 -180.000000 30.453003 -180.000000 46.719398 52.498001 -52.187401 14.270209 -20.420035 -40.046688 0.000000 0.000000 54.946301 -41.358675 16.015667 -5.384993 0.000000 0.000000 -23.879580 16.833044 16.570351 -6.321024 0.000000 0.000000 18.524799 20.802866 -13.741940 -10.928918 0.000000 0.000000 -20.083500 
-14.760937 8.609500 47.789212 -172.153473 -1.694883 -175.376670 -2.754370 0.631361 -7.244842 13.757155 1.816660 2.167800 0.000000 0.000000 0.000000 151.685603 31.955361 -154.373507 -151.808854 -62.722905 66.187665 0.355348 -10.108100 3.214996 -57.383400 2.168780 82.084099 0.000000 -61.656601 0.000000 81.672302 -24.663099 -7.875750 27.422701 -4.144710 -0.598999 66.998398 47.407101 -21.059998 -180.000000 30.436005 -180.000000 47.795502 53.016399 -51.715099 14.695843 -20.721643 -40.289853 0.000000 0.000000 55.015999 -41.510701 15.895391 -5.449880 0.000000 0.000000 -23.856800 17.093656 16.325364 -6.392041 0.000000 0.000000 18.432501 20.770208 -13.708183 -10.860248 0.000000 0.000000 -20.138640 
-14.745522 8.604462 47.796655 -171.979805 -2.005826 -175.356685 -2.930368 0.567244 -7.218896 14.069817 1.840793 2.125798 0.000000 0.000000 0.000000 152.103756 31.934771 -154.323037 -152.017159 -62.621814 66.373822 0.529051 -10.291300 3.218994 -57.749199 2.129860 82.220200 0.000000 -61.417500 0.000000 81.813004 -24.420300 -7.857880 27.703199 -4.057900 -0.554993 66.860603 47.359299 -20.863007 -180.000000 30.378006 -180.000000 48.314999 52.966000 -51.522701 15.081627 -20.975165 -40.551101 0.000000 0.000000 55.113400 -41.682987 15.777117 -5.514560 0.000000 0.000000 -23.865690 17.340460 16.176419 -6.426098 0.000000 0.000000 18.265301 20.786541 -13.750960 -10.827626 0.000000 0.000000 -20.191040 
-14.731905 8.599620 47.805293 -171.813584 -2.272030 -175.312013 -3.008628 0.530798 -7.187590 14.267837 1.853687 2.090044 0.000000 0.000000 0.000000 152.497327 31.901445 -154.227175 -152.291024 -62.520233 66.707147 0.615911 -10.357500 3.246002 -57.925800 1.980090 82.404602 0.000000 -61.270901 0.000000 81.856598 -24.216700 -8.032480 27.846600 -3.945960 -0.467987 66.743202 47.336300 -20.822998 180.000000 30.335007 180.000000 48.896099 52.810398 -50.789700 15.445962 -21.155849 -40.846058 0.000000 0.000000 55.234299 -41.680241 15.726255 -5.497274 0.000000 0.000000 -23.805000 17.555186 15.967037 -6.564810 0.000000 0.000000 18.255600 20.725279 -13.731780 -10.780357 0.000000 0.000000 -20.230170 
-14.718915 8.596440 47.812484 -171.742805 -2.461174 -175.281527 -3.132732 0.506634 -7.165472 14.412178 1.877682 2.088992 0.000000 0.000000 0.000000 152.760673 31.890109 -154.215132 -152.414047 -62.479620 66.828167 0.656434 -10.380700 3.286987 -58.039200 1.828340 82.542900 0.000000 -61.194901 0.000000 81.850800 -24.128000 -8.069930 27.938299 -3.945810 -0.403015 66.683098 47.385502 -20.839996 -180.000000 30.345001 -180.000000 49.249901 53.052799 -50.076099 15.694923 -21.319038 -41.028591 0.000000 0.000000 55.252300 -41.810244 15.649554 -5.505381 0.000000 0.000000 -23.738170 17.688005 15.820255 -6.597822 0.000000 0.000000 18.096701 20.718088 -13.738929 -10.749774 0.000000 0.000000 -20.256310 
-14.706766 8.594365 47.818957 -171.728928 -2.636596 -175.246269 -3.235742 0.472843 -7.134194 14.459797 1.900832 2.043065 0.000000 0.000000 0.000000 153.039515 32.058105 -154.351451 -152.193118 -62.469616 66.594760 0.649440 -10.443800 3.378998 -58.063202 1.759930 82.548500 0.000000 -61.199600 0.000000 81.993202 -24.059099 -8.098480 28.025000 -3.925070 -0.373993 66.487099 47.467499 -20.875000 -180.000000 30.380997 -180.000000 49.539501 53.042301 -49.916901 15.844918 -21.399838 -41.170513 0.000000 0.000000 55.216900 -41.779821 15.610060 -5.431093 0.000000 0.000000 -23.811490 17.763127 15.634644 -6.688784 0.000000 0.000000 18.063601 20.623074 -13.751204 -10.714481 0.000000 0.000000 -20.275390 
-14.693971 8.593457 47.823750 -171.785141 -2.712104 -175.219164 -3.389792 0.462681 -7.116223 14.504479 1.948813 2.033437 0.000000 0.000000 0.000000 153.218049 32.211811 -154.508963 -152.000073 -62.496950 66.375789 0.644798 -10.488200 3.472992 -58.049900 1.758450 82.441101 0.000000 -61.276699 0.000000 82.034302 -24.079800 -7.953020 28.064400 -3.951420 -0.503998 66.374001 47.496498 -20.751007 -180.000000 30.343994 -180.000000 49.691200 52.862400 -49.977501 15.883861 -21.363648 -41.180664 0.000000 0.000000 55.080200 -41.792001 15.524426 -5.409306 0.000000 0.000000 -23.682810 17.769258 15.492128 -6.830531 0.000000 0.000000 18.209200 20.577715 -13.670415 -10.709002 0.000000 0.000000 -20.223940 
-14.683349 8.593235 47.828253 -171.825760 -2.790096 -175.193234 -3.428237 0.408625 -7.066971 14.454527 1.921038 2.001665 0.000000 0.000000 0.000000 153.244433 32.238422 -154.593745 -152.082848 -62.558256 66.450437 0.624152 -10.375000 3.553009 -57.974602 1.815300 82.262901 0.000000 -61.442799 0.000000 81.893600 -24.175600 -7.948940 28.057199 -3.996550 -0.648010 66.452904 47.498901 -20.569000 180.000000 30.423004 180.000000 49.748402 52.946701 -50.050999 15.878270 -21.215138 -41.200964 0.000000 0.000000 54.981800 -41.530427 15.517015 -5.282873 0.000000 0.000000 -23.662810 17.783079 15.082905 -6.874571 0.000000 0.000000 18.148500 20.450764 -13.444787 -10.569352 0.000000 0.000000 -20.256260 
-14.674582 8.594649 47.831257 -171.970411 -2.839297 -175.184190 -3.505175 0.354846 -6.996145 14.347716 1.913289 1.952579 0.000000 0.000000 0.000000 153.326574 32.460924 -154.810368 -151.765075 -62.599773 66.076243 0.520647 -10.263500 3.688995 -57.780800 1.919840 81.935600 0.000000 -61.700401 0.000000 81.785103 -24.360500 -7.638970 27.980700 -3.951860 -0.826996 66.440804 47.383801 -20.652008 -180.000000 30.384995 -180.000000 49.672600 52.834202 -49.987202 15.758610 -21.120921 -41.115991 0.000000 0.000000 54.760899 -41.484706 15.482353 -5.219188 0.000000 0.000000 -23.581830 17.690957 14.552814 -6.888890 0.000000 0.000000 18.099100 20.381596 -13.064860 -10.436150 0.000000 0.000000 -20.189950 
-14.668016 8.597905 47.834234 -172.164508 -2.947778 -175.191440 -3.522353 0.279170 -6.851381 14.111825 1.873771 1.880976 0.000000 0.000000 0.000000 153.344375 32.611097 -154.950609 -151.620033 -62.604765 65.830211 0.315510 -9.984260 3.850006 -57.375099 1.968910 81.613297 0.000000 -62.061100 0.000000 81.432800 -24.731800 -7.537490 27.894600 -3.968090 -1.113007 66.468498 47.181999 -20.502991 180.000000 30.404999 180.000000 49.700901 52.694500 -50.118099 15.538995 -20.960785 -41.074952 0.000000 0.000000 54.594898 -41.193106 15.484458 -4.921763 0.000000 0.000000 -23.566340 17.532157 13.563225 -6.925805 0.000000 0.000000 18.100500 20.311785 -12.308370 -10.193316 0.000000 0.000000 -20.088430 
-14.663055 8.602406 47.836513 -172.378806 -3.147565 -175.159363 -3.487532 0.190502 -6.694917 13.767538 1.823232 1.757600 0.000000 0.000000 0.000000 153.516996 32.765230 -155.064697 -151.607424 -62.583530 65.749698 0.048091 -9.623310 4.003998 -56.833900 2.009750 81.317497 0.000000 -62.490898 0.000000 81.178101 -25.025900 -7.074650 27.733700 -3.994340 -1.489014 66.451698 46.894199 -20.485992 -180.000000 30.460999 -180.000000 49.721901 52.647999 -50.309200 15.206308 -20.536123 -41.107462 0.000000 0.000000 54.453602 -40.504167 15.449622 -4.389925 0.000000 0.000000 -23.531190 17.339653 12.296912 -6.885564 0.000000 0.000000 17.849400 20.395891 -11.351599 -9.884344 0.000000 0.000000 -19.956010 
-14.659542 8.608148 47.837028 -172.580586 -3.402296 -175.016202 -3.403328 0.125970 -6.610396 13.376816 1.789584 1.597980 0.000000 0.000000 0.000000 153.779043 32.921576 -155.142982 -151.538202 -62.537089 65.661651 -0.318665 -9.174700 4.144989 -56.125401 2.036500 81.047203 0.000000 -63.010899 0.000000 80.837097 -25.427799 -6.846590 27.424101 -4.040360 -1.806000 66.362198 46.724499 -20.635986 180.000000 30.513000 180.000000 49.671501 52.574200 -50.793499 14.779159 -19.735824 -41.187735 0.000000 0.000000 54.259102 -39.455268 15.144168 -3.794149 0.000000 0.000000 -23.355080 17.133829 10.690591 -6.941865 0.000000 0.000000 17.591499 20.526450 -10.117455 -9.517952 0.000000 0.000000 -19.766700 
-14.656229 8.614190 47.835440 -172.766783 -3.686228 -174.849728 -3.230295 0.110582 -6.523242 12.798197 1.772819 1.441260 0.000000 0.000000 0.000000 154.449041 32.984840 -155.063636 -151.405280 -62.397755 65.615074 -0.677108 -8.631810 4.398987 -55.252499 2.019590 80.576698 0.000000 -63.710701 0.000000 80.397102 -25.915501 -6.265120 27.047701 -4.078890 -2.100006 66.105904 46.738400 -20.977997 -180.000000 30.576996 -180.000000 49.755100 52.350700 -50.499699 14.139889 -18.318163 -41.190809 0.000000 0.000000 54.072399 -37.538111 14.376354 -3.002814 0.000000 0.000000 -22.898200 16.955413 9.112836 -7.084751 0.000000 0.000000 17.481899 20.559161 -8.989754 -9.149537 0.000000 0.000000 -19.548080 
-14.654136 8.621645 47.829806 -172.953468 -3.935522 -174.706767 -3.015497 0.164813 -6.461887 12.074134 1.788691 1.340003 0.000000 0.000000 0.000000 155.491749 32.916978 -154.908076 -151.228884 -62.245599 65.565933 -1.057080 -8.103910 4.671997 -54.247002 2.157270 79.779900 0.000000 -64.590202 0.000000 79.889801 -26.488300 -6.252270 26.631500 -4.116420 -2.505005 65.642799 46.843700 -21.542999 -180.000000 30.774002 180.000000 49.443699 52.072700 -50.837200 13.357442 -16.534705 -40.974019 0.000000 0.000000 53.846100 -35.805180 11.556544 -2.000266 0.000000 0.000000 -22.012580 16.783230 7.730291 -7.314602 0.000000 0.000000 17.649500 20.574927 -8.027278 -8.805554 0.000000 0.000000 -19.577480 
-14.656354 8.632379 47.821245 -173.223954 -4.184004 -174.693045 -2.772763 0.269093 -6.267299 11.135327 1.850487 1.239366 0.000000 0.000000 0.000000 156.913488 32.771675 -154.666454 -151.172499 -62.042872 65.651353 -1.577140 -7.609020 5.092987 -52.983299 2.390540 78.681198 0.000000 -65.669601 0.000000 79.283203 -27.305799 -5.428760 26.170200 -4.202400 -3.558990 65.269600 46.541901 -22.118988 180.000000 31.031998 180.000000 49.781200 51.944401 -50.397598 12.343118 -14.685085 -40.431275 0.000000 0.000000 53.462299 -34.278001 7.001100 -0.401191 0.000000 0.000000 -22.251270 16.517533 6.554783 -7.590065 0.000000 0.000000 18.222200 20.548744 -7.256685 -8.563905 0.000000 0.000000 -19.548910 
